<svg xmlns="http://www.w3.org/2000/svg" width="18" height="20" viewBox="0 0 18 20">
  <g id="Layer_2" data-name="Layer 2" transform="translate(-3 -2)">
    <path id="Path_1083" data-name="Path 1083" d="M20,5H4A1,1,0,0,0,3,6V21a1,1,0,0,0,1,1H20a1,1,0,0,0,1-1V6A1,1,0,0,0,20,5ZM4.5,6.5h6.75v14H4.5Zm15,14H12.75V6.5H19.5Z" fill="#212121"/>
    <path id="Path_1084" data-name="Path 1084" d="M7.91,11.14,6.45,12.6a.13.13,0,0,0,.09.22h.71V16a.13.13,0,0,0,.13.13H8.63A.13.13,0,0,0,8.76,16V12.82h.71a.13.13,0,0,0,.09-.22L8.09,11.14A.13.13,0,0,0,7.91,11.14Z" fill="#212121"/>
    <path id="Path_1085" data-name="Path 1085" d="M16.09,15.86l1.46-1.46a.13.13,0,0,0-.09-.22h-.71V11a.13.13,0,0,0-.13-.13H15.37a.13.13,0,0,0-.13.13v3.16h-.71a.13.13,0,0,0-.09.22l1.46,1.46a.13.13,0,0,0,.19.02Z" fill="#212121"/>
    <rect id="Rectangle_1464" data-name="Rectangle 1464" width="6" height="1.5" transform="translate(9 2)" fill="#212121"/>
  </g>
</svg>
