<svg id="lock" xmlns="http://www.w3.org/2000/svg" width="26.741" height="26.741" viewBox="0 0 26.741 26.741">
  <path id="Vector" d="M.836,10.585a.842.842,0,0,0,.836-.836V7.521c0-3.51.992-5.85,5.85-5.85s5.85,2.34,5.85,5.85V9.749a.836.836,0,0,0,1.671,0V7.521C15.042,4.29,14.262,0,7.521,0S0,4.29,0,7.521V9.749A.842.842,0,0,0,.836,10.585Z" transform="translate(5.85 1.393)" fill="#169bd7"/>
  <path id="Vector-2" data-name="Vector" d="M6.407,15.042H17.549c4.914,0,6.407-1.493,6.407-6.407V6.407C23.956,1.493,22.463,0,17.549,0H6.407C1.493,0,0,1.493,0,6.407V8.635C0,13.549,1.493,15.042,6.407,15.042ZM17.549,1.671c3.989,0,4.735.758,4.735,4.735V8.635c0,3.978-.747,4.735-4.735,4.735H6.407c-3.989,0-4.735-.758-4.735-4.735V6.407c0-3.978.747-4.735,4.735-4.735Z" transform="translate(1.393 10.307)" fill="#169bd7"/>
  <path id="Vector-3" data-name="Vector" d="M1.114,2.227a1.109,1.109,0,0,0,.423-.089A1.15,1.15,0,0,0,1.905,1.9a1.151,1.151,0,0,0,.323-.791A1.109,1.109,0,0,0,2.139.69,1.15,1.15,0,0,0,1.905.322,1.15,1.15,0,0,0,1.538.088,1.117,1.117,0,0,0,.323.322,1.287,1.287,0,0,0,.089.69,1.109,1.109,0,0,0,0,1.113,1.172,1.172,0,0,0,.323,1.9,1.172,1.172,0,0,0,1.114,2.227Z" transform="translate(16.713 16.715)" fill="#ebf04b"/>
  <path id="Vector-4" data-name="Vector" d="M1.114,2.229a1.172,1.172,0,0,0,.791-.323,1.151,1.151,0,0,0,.323-.791A.934.934,0,0,0,2.139.692,1.287,1.287,0,0,0,1.905.324a1.112,1.112,0,0,0-1-.3A.672.672,0,0,0,.691.09a.844.844,0,0,0-.2.1A1.756,1.756,0,0,0,.323.324,1.287,1.287,0,0,0,.089.692,1.109,1.109,0,0,0,0,1.115a1.151,1.151,0,0,0,.323.791L.49,2.04a.844.844,0,0,0,.2.1A.672.672,0,0,0,.9,2.207,1.365,1.365,0,0,0,1.114,2.229Z" transform="translate(12.256 16.712)" fill="#ebf04b"/>
  <path id="Vector-5" data-name="Vector" d="M1.114,2.229a1.151,1.151,0,0,0,.791-.323,1.287,1.287,0,0,0,.234-.368,1.109,1.109,0,0,0,.089-.423A1.172,1.172,0,0,0,1.905.324L1.738.19a.844.844,0,0,0-.2-.1.708.708,0,0,0-.2-.067,1.134,1.134,0,0,0-1.014.3A1.151,1.151,0,0,0,0,1.115a1.109,1.109,0,0,0,.089.423,1.15,1.15,0,0,0,.234.368A1.172,1.172,0,0,0,1.114,2.229Z" transform="translate(7.8 16.712)" fill="#ebf04b"/>
  <path id="Vector-6" data-name="Vector" d="M26.741,0H0V26.741H26.741Z" fill="none" opacity="0"/>
</svg>
