<svg id="vuesax_outline_mobile" data-name="vuesax/outline/mobile" xmlns="http://www.w3.org/2000/svg" width="26.741" height="26.741" viewBox="0 0 26.741 26.741">
  <g id="mobile">
    <path id="Vector" d="M13.092,23.956H6.407C1.493,23.956,0,22.463,0,17.549V6.407C0,1.493,1.493,0,6.407,0h6.685C18.006,0,19.5,1.493,19.5,6.407V17.549C19.5,22.463,18.006,23.956,13.092,23.956ZM6.407,1.671c-3.989,0-4.735.758-4.735,4.735V17.549c0,3.978.747,4.735,4.735,4.735h6.685c3.989,0,4.735-.758,4.735-4.735V6.407c0-3.978-.747-4.735-4.735-4.735Z" transform="translate(3.621 1.393)" fill="#169bd7"/>
    <path id="Vector-2" data-name="Vector" d="M5.293,1.671H.836A.842.842,0,0,1,0,.836.842.842,0,0,1,.836,0H5.293a.842.842,0,0,1,.836.836A.842.842,0,0,1,5.293,1.671Z" transform="translate(10.307 5.293)" fill="#ebf04b"/>
    <path id="Vector-3" data-name="Vector" d="M2.563,5.125A2.563,2.563,0,1,1,5.125,2.563,2.563,2.563,0,0,1,2.563,5.125Zm0-3.465a.891.891,0,1,0,.891.891A.894.894,0,0,0,2.563,1.66Z" transform="translate(10.808 17.003)" fill="#ebf04b"/>
    <path id="Vector-4" data-name="Vector" d="M0,0H26.741V26.741H0Z" fill="none" opacity="0"/>
  </g>
</svg>
