<svg id="Layer_2" data-name="Layer 2" xmlns="http://www.w3.org/2000/svg" width="24" height="24" viewBox="0 0 24 24">
  <g id="Layer_3" data-name="Layer 3">
    <rect id="Rectangle_965" data-name="Rectangle 965" width="24" height="24" fill="#555" opacity="0"/>
  </g>
  <g id="Layer_2-2" data-name="Layer 2" transform="translate(2.176 3.12)">
    <path id="Path_750" data-name="Path 750" d="M21.12,10.78l-.63-.94a1.74,1.74,0,0,1-.11-.18,4,4,0,0,1-.5-1.29s0-.07,0-.1l-.3-1.8a4,4,0,0,0-4-3.35H8.39a4,4,0,0,0-4,3.35l-.3,1.8v.1a3.62,3.62,0,0,1-.5,1.3,1.4,1.4,0,0,1-.1.16l-.64,1a4,4,0,0,0-.62,2.88l.46,2.77a1.92,1.92,0,0,0,.53,1v2.13A1.25,1.25,0,0,0,4.5,20.88h2a1.25,1.25,0,0,0,1.25-1.25v-1.5h8.5v1.5a1.25,1.25,0,0,0,1.25,1.25h2a1.25,1.25,0,0,0,1.25-1.25V17.49a1.92,1.92,0,0,0,.53-1l.46-2.79A4,4,0,0,0,21.12,10.78ZM5.92,6.71A2.5,2.5,0,0,1,8.39,4.63h7.22a2.51,2.51,0,0,1,2.47,2.09l.18,1.08a.5.5,0,0,1-.49.58H6.23a.5.5,0,0,1-.49-.58Zm.33,12.66H4.75V18.13h1.5Zm13,0h-1.5V18.13h1.5Zm1-6L19.8,16.2a.5.5,0,0,1-.5.42H4.69a.5.5,0,0,1-.49-.41l-.46-2.78a2.42,2.42,0,0,1,.39-1.79l.64-1a4.34,4.34,0,0,0,.43-.79H18.8a4.78,4.78,0,0,0,.44.8l.63.94a2.48,2.48,0,0,1,.39,1.83Z" transform="translate(-2.176 -3.12)" fill="#555"/>
    <rect id="Rectangle_966" data-name="Rectangle 966" width="3" height="2" rx="0.5" transform="translate(3.824 9.63)" fill="#555"/>
    <rect id="Rectangle_967" data-name="Rectangle 967" width="3" height="2" rx="0.5" transform="translate(12.824 9.63)" fill="#555"/>
  </g>
</svg>
