<?xml version="1.0" encoding="iso-8859-1"?>
<!-- Uploaded to: SVG Repo, www.svgrepo.com, Generator: SVG Repo Mixer Tools -->
<svg fill="#000000" version="1.1" id="Layer_1" xmlns="http://www.w3.org/2000/svg" xmlns:xlink="http://www.w3.org/1999/xlink" 
	 viewBox="0 0 512 512" xml:space="preserve">
<g>
	<g>
		<polygon points="153.943,144.794 189.385,94.127 163.6,76.091 93.527,176.262 147.315,176.262 110.588,232.116 136.882,249.406 
			205.67,144.794 		"/>
	</g>
</g>
<g>
	<g>
		<rect x="132.281" y="340.779" width="35.664" height="31.468"/>
	</g>
</g>
<g>
	<g>
		<path d="M477.179,172.872v-63.768H365.811v63.768h-15.295v108.012h55.244v169.557c0,16.592-13.5,30.092-30.092,30.092H204.195
			c-22.482,0-40.773-18.291-40.773-40.772V422.71H280.7V0H19.527v422.709h112.428v17.05c0,39.834,32.407,72.24,72.241,72.24h171.473
			c33.945,0,61.56-27.615,61.56-61.56V280.884h55.244V172.872H477.179z M50.995,31.468h198.238v260.019H50.995V31.468z
			 M50.995,391.241v-68.287h198.238v68.287H50.995z M397.279,140.572h48.432v32.3h-48.432V140.572z M461.004,249.416h-79.02v-45.077
			h79.02V249.416z"/>
	</g>
</g>
<g>
	<g>
		<rect x="402.75" y="148.907" width="15.438" height="13.322"/>
	</g>
</g>
<g>
	<g>
		<rect x="424.798" y="148.907" width="15.438" height="13.322"/>
	</g>
</g>
</svg>