<?xml version="1.0" encoding="utf-8"?>
<!-- Uploaded to: SVG Repo, www.svgrepo.com, Generator: SVG Repo Mixer Tools -->
<svg width="800px" height="800px" viewBox="0 0 24 24" fill="none" xmlns="http://www.w3.org/2000/svg">
  <path d="M9 5.25C8.58579 5.25 8.25 5.58579 8.25 6C8.25 6.41421 8.58579 6.75 9 6.75H15C15.4142 6.75 15.75 6.41421 15.75 6C15.75 5.58579 15.4142 5.25 15 5.25H9Z" fill="currentColor"/>
  <path fill-rule="evenodd" clip-rule="evenodd" d="M11.9425 1.25C9.86994 1.24999 8.23716 1.24997 6.96128 1.42337C5.65122 1.60141 4.60609 1.97468 3.78484 2.80484C2.96469 3.63387 2.59692 4.68702 2.4213 6.00741C2.24998 7.29551 2.24999 8.94462 2.25 11.0411V16.139C2.24999 17.6466 2.24998 18.8402 2.34601 19.7388C2.44091 20.6269 2.64447 21.428 3.22584 21.9638C3.69226 22.3937 4.28211 22.6646 4.91165 22.7367C5.69912 22.8268 6.43439 22.4508 7.15868 21.9377C7.89163 21.4185 8.78075 20.6321 9.90254 19.6399L9.93905 19.6076C10.4591 19.1476 10.8112 18.8372 11.105 18.6224C11.3889 18.4148 11.5623 18.3397 11.7084 18.3103C11.9009 18.2715 12.0991 18.2715 12.2916 18.3103C12.4377 18.3397 12.6111 18.4148 12.895 18.6224C13.1888 18.8372 13.5409 19.1476 14.061 19.6076L14.0975 19.64C15.2193 20.6321 16.1084 21.4186 16.8413 21.9377C17.5656 22.4508 18.3009 22.8268 19.0883 22.7367C19.7179 22.6646 20.3077 22.3937 20.7742 21.9638C21.3555 21.428 21.5591 20.6269 21.654 19.7388C21.75 18.8402 21.75 17.6466 21.75 16.139V11.041C21.75 8.94462 21.75 7.2955 21.5787 6.00741C21.4031 4.68702 21.0353 3.63387 20.2152 2.80484C19.3939 1.97468 18.3488 1.60141 17.0387 1.42337C15.7628 1.24997 14.1301 1.24999 12.0575 1.25H11.9425Z" fill="currentColor"/>
</svg>
