<svg id="Layer_2" data-name="Layer 2" xmlns="http://www.w3.org/2000/svg" width="18.441" height="17.657" viewBox="0 0 18.441 17.657">
  <path id="Path_1094" data-name="Path 1094" d="M2.922,18.541H14.909a.922.922,0,0,0,.922-.922V5.632a.922.922,0,0,0-.922-.922H10.3v.922h4.61V17.619H2.922V5.632H10.3V4.71H2.922A.922.922,0,0,0,2,5.632V17.619A.922.922,0,0,0,2.922,18.541Z" transform="translate(-2 -0.884)" fill="#212121"/>
  <path id="Path_1095" data-name="Path 1095" d="M20.468,16.765V6.06l.59.59.655-.645L20.007,4.29,18.32,5.977l.655.655.572-.572V16.719l-.572-.572-.655.645,1.706,1.715,1.687-1.687-.655-.655Z" transform="translate(-3.272 -0.851)" fill="#212121"/>
  <path id="Path_1370" data-name="Path 1370" d="M2.148,12.475V1.77l.59.59.655-.645L1.687,0,0,1.687l.655.655.572-.572V12.429l-.572-.572L0,12.5l1.706,1.715,1.687-1.687-.655-.655Z" transform="translate(0 3.393) rotate(-90)" fill="#212121"/>
</svg>
