<svg id="user-square" xmlns="http://www.w3.org/2000/svg" width="26.741" height="26.741" viewBox="0 0 26.741 26.741">
  <path id="Vector" d="M4.337,0h6.685a12.994,12.994,0,0,1,3.733.457.854.854,0,0,1,.6.869c-.279,3.332-3.655,5.95-7.677,5.95S.293,4.669,0,1.326A.822.822,0,0,1,.6.457,12.994,12.994,0,0,1,4.337,0Zm9.226,1.883a13.2,13.2,0,0,0-2.54-.212H4.337a13.2,13.2,0,0,0-2.54.212C2.387,4.022,4.828,5.6,7.68,5.6S12.973,4.022,13.563,1.883Z" transform="translate(5.69 18.073)" fill="#ebf04b"/>
  <path id="Vector-2" data-name="Vector" d="M7.8,0h6.685c5.571,0,7.8,2.228,7.8,7.8v6.685c0,4.212-1.27,6.518-4.3,7.376-.245-2.9-3.22-5.181-6.841-5.181s-6.6,2.284-6.841,5.181C1.27,21,0,18.7,0,14.485V7.8C0,2.228,2.228,0,7.8,0Zm3.343,13.56a3.994,3.994,0,1,0-3.989-4A3.994,3.994,0,0,0,11.142,13.56Z" transform="translate(2.228 2.228)" fill="none" stroke="#169bd7" stroke-linecap="round" stroke-linejoin="round" stroke-width="1.5"/>
  <path id="Vector-3" data-name="Vector" d="M4.825,9.66A4.83,4.83,0,1,0,0,4.825,4.836,4.836,0,0,0,4.825,9.66Zm0-7.989A3.159,3.159,0,1,1,1.671,4.825,3.158,3.158,0,0,1,4.825,1.671Z" transform="translate(8.546 6.964)" fill="#ebf04b"/>
  <path id="Vector-4" data-name="Vector" d="M26.741,0H0V26.741H26.741Z" fill="none" opacity="0"/>
</svg>
